# xmcd
#
# Track frame offsets:
#	150
#	15947
#	38702
#	55942
#
# Disc length: 952 seconds
#
# Revision: 1
# Processed by: cddbd v1.5.2PL0 Copyright (c) Steve Scherf et al.
# Submitted via: EZCDAudioConverter 2.1.5.1
#
DISCID=2303b604
DTITLE=Sex Appeal feat. Layne Leigh and Gino Gillian - Life Goes Up - Life Goes 
DTITLE=Down
DYEAR=1997
DGENRE=country
TTITLE0=Life Goes Up - Life Goes Down (Radio Edit)
TTITLE1=Life Goes Up - Life Goes Down (Extende Version)
TTITLE2=Life Goes Up - Life Goes Down (Von Quadt Remix)
TTITLE3=Life Goes Up - Life Goes Down (Instrumental)
EXTD=
EXTT0=
EXTT1=
EXTT2=
EXTT3=
PLAYORDER=
